<svg data-v-423bf9ae="" xmlns="http://www.w3.org/2000/svg" viewBox="0 0 336 100" class="iconLeft"><!----><!----><!----><g data-v-423bf9ae="" id="7321f5f8-449f-4943-a0c7-2272a2d9fc2e" fill="white" transform="matrix(5.70884859118442,0,0,5.70884859118442,82.72559792193206,3.6079935708625612)"><path d="M0.42 7.18C0.64 7.35 0.95 7.81 0.95 8.64L0.95 13.16C1.27 13.22 1.68 13.24 2.04 13.24C2.42 13.24 2.83 13.22 3.14 13.16L3.14 8.81C3.43 8.34 3.78 8.09 4.28 8.09C4.52 8.12 4.76 8.15 5.00 8.23C5.36 7.63 5.54 6.71 5.54 6.19C5.26 6.13 5.04 6.08 4.62 6.08C3.71 6.08 3.18 6.61 2.87 7.34C2.55 6.59 1.97 6.13 1.08 6.06C0.81 6.27 0.50 6.80 0.42 7.18ZM11.63 10.37C11.77 9.91 11.82 9.55 11.82 8.93C11.82 7.24 10.75 5.96 8.90 5.96C6.68 5.96 5.77 7.60 5.77 9.72C5.77 11.56 6.43 13.37 8.89 13.37C9.87 13.37 10.93 13.08 11.63 12.57C11.58 12.14 11.38 11.61 11.06 11.28C10.49 11.51 9.87 11.70 9.24 11.70C8.32 11.70 8.05 11.13 7.98 10.37ZM8.89 7.52C9.55 7.52 9.81 8.06 9.81 8.71L9.81 8.86L7.97 8.86C8.02 7.95 8.27 7.52 8.89 7.52ZM13.65 12.22C13.83 13.06 14.22 13.24 15.05 13.24C15.57 13.24 16.25 13.22 16.70 13.16L17.09 10.72C17.19 10.02 17.35 9.06 17.46 8.11L17.54 8.11C17.65 9.07 17.79 10.05 17.91 10.75L18.13 12.25C18.26 13.10 18.68 13.24 19.52 13.24C20.02 13.24 20.68 13.23 21.11 13.16L22.75 6.41L22.68 6.27C22.37 6.12 21.83 6.09 21.53 6.09C21.27 6.09 20.93 6.12 20.69 6.19L20.06 9.24C19.89 10.11 19.78 10.91 19.68 11.55C19.60 11.55 19.59 11.52 19.57 11.42L18.79 6.24C18.45 6.17 17.77 6.15 17.49 6.15C17.22 6.15 16.58 6.17 16.23 6.24L15.46 11.55C15.37 11.55 15.36 11.52 15.34 11.42C15.30 10.95 15.16 10.15 14.98 9.24L14.55 6.99C14.42 6.38 14.21 6.05 13.51 6.05C13.12 6.05 12.71 6.15 12.29 6.30ZM28.98 10.37C29.12 9.91 29.16 9.55 29.16 8.93C29.16 7.24 28.10 5.96 26.25 5.96C24.02 5.96 23.11 7.60 23.11 9.72C23.11 11.56 23.77 13.37 26.24 13.37C27.22 13.37 28.28 13.08 28.98 12.57C28.92 12.14 28.73 11.61 28.41 11.28C27.83 11.51 27.22 11.70 26.59 11.70C25.66 11.70 25.40 11.13 25.33 10.37ZM26.24 7.52C26.89 7.52 27.16 8.06 27.16 8.71L27.16 8.86L25.31 8.86C25.37 7.95 25.62 7.52 26.24 7.52ZM33.22 11.56C32.77 11.56 32.61 11.33 32.61 10.91L32.61 4.17C32.61 3.19 32.28 2.86 31.42 2.86L30.56 2.86L30.48 2.95L30.48 11.28C30.48 12.61 30.95 13.23 32.21 13.23C32.75 13.23 33.31 13.16 33.73 13.09C33.77 12.95 33.77 12.77 33.77 12.60C33.77 12.25 33.71 11.87 33.60 11.56ZM37.46 11.56C37.02 11.56 36.85 11.33 36.85 10.91L36.85 4.17C36.85 3.19 36.53 2.86 35.66 2.86L34.80 2.86L34.72 2.95L34.72 11.28C34.72 12.61 35.20 13.23 36.46 13.23C36.99 13.23 37.55 13.16 37.97 13.09C38.01 12.95 38.01 12.77 38.01 12.60C38.01 12.25 37.95 11.87 37.84 11.56ZM38.93 11.28C38.70 11.58 38.63 11.86 38.63 12.10C38.63 12.35 38.68 12.64 38.86 13.16L43.09 13.16C43.96 13.16 44.25 12.77 44.25 12.19C44.25 11.90 44.18 11.69 44.03 11.31C43.64 11.51 43.15 11.55 42.73 11.55L42.24 11.55C41.89 11.55 41.54 11.58 41.13 11.63L41.09 11.56C41.45 11.20 41.83 10.71 42.14 10.30L43.86 8.02C44.00 7.83 44.07 7.57 44.07 7.36C44.07 7.06 43.96 6.71 43.78 6.17L38.91 6.17C38.84 6.47 38.78 6.79 38.78 7.13C38.78 7.34 38.81 7.57 38.86 7.80L39.94 7.80C40.45 7.80 41.16 7.74 41.68 7.69L41.72 7.76C41.40 8.09 40.92 8.62 40.59 9.07Z"></path></g><!----><g data-v-423bf9ae="" id="7ad90ec2-f337-442c-b2a8-0408b8a10a3a" transform="matrix(1.0534103393554688,0,0,1.0534103393554688,-17.47433258241508,0.032809966678904345)" stroke="none" fill="white"><path d="M78.824 16.4c.031-.12.076-.232.084-.356.008-.132-.02-.256-.036-.388-.017-.124-.021-.248-.06-.372-.045-.124-.117-.232-.185-.348-.06-.1-.084-.208-.155-.3-.021-.024-.053-.048-.076-.072l-.013-.024c-.02-.024-.048-.04-.067-.064C65.2-1.296 29.564-.352 18.708 1.768a2.001 2.001 0 00-1.62 1.968v87.668a2 2 0 004 0V56.275c1.416-1.731 3.916-3.703 8.236-3.647 1.276-.04 2.008-1.288 2.016-2.392.008-1.104-.884-2.833-1.984-2.833h-.172c-3.492 0-6.112 1.192-8.096 2.676V17.592c2.404-.284 5.648-.98 9.532-1.812 13.568-2.908 36.264-7.772 44.832 1.479.071.076.159.104.235.164.125.1.244.204.385.268.104.052.216.072.324.1.144.04.283.08.432.088.031 0 .064.02.088.02.096 0 .191-.04.288-.056.116-.016.231-.024.344-.063.136-.044.252-.124.376-.2.084-.052.176-.072.252-.132.016-.012.024-.036.04-.052.017-.012.04-.016.056-.032.084-.084.129-.18.196-.272.084-.104.173-.204.236-.32.06-.116.084-.244.12-.372z"></path><path d="M64.872 38.884c.364-1.176.552-2.396.552-3.644 0-6.036-4.783-20.336-12.332-20.336-7.548 0-12.332 14.3-12.332 20.336 0 1.212.172 2.4.52 3.544-2.764 3.312-4.52 7.556-4.976 12.084-1.16 11.571-4.332 42.332-4.332 42.332a1.997 1.997 0 001.988 2.204h38.252c.567 0 1.101-.24 1.488-.66.38-.42.56-.984.504-1.549 0 0-3.172-30.5-4.328-42.079-.456-4.556-2.216-8.86-5.004-12.232z"></path></g><!----></svg>